<mxfile host="app.diagrams.net" modified="2023-12-26T15:43:53.919Z" agent="Mozilla/5.0 (Windows NT 10.0; Win64; x64; rv:121.0) Gecko/20100101 Firefox/121.0" etag="eowLKz5_HAzVxtqrdN0M" version="22.1.11" type="device">
  <diagram name="PÃ¡gina-1" id="sBnMv8ROgU1BbRwkUwzK">
    <mxGraphModel dx="1194" dy="716" grid="1" gridSize="10" guides="1" tooltips="1" connect="1" arrows="1" fold="1" page="1" pageScale="1" pageWidth="827" pageHeight="1169" background="#ffffff" math="0" shadow="0">
      <root>
        <mxCell id="0" />
        <mxCell id="1" parent="0" />
        <mxCell id="KLTQbaZBxGaoS2x_sraV-2" value="" style="endArrow=none;html=1;rounded=0;strokeWidth=4;" edge="1" parent="1">
          <mxGeometry width="50" height="50" relative="1" as="geometry">
            <mxPoint x="80" y="480" as="sourcePoint" />
            <mxPoint x="80" y="160" as="targetPoint" />
          </mxGeometry>
        </mxCell>
        <mxCell id="KLTQbaZBxGaoS2x_sraV-3" value="" style="endArrow=none;html=1;rounded=0;strokeWidth=4;" edge="1" parent="1">
          <mxGeometry width="50" height="50" relative="1" as="geometry">
            <mxPoint x="80" y="480" as="sourcePoint" />
            <mxPoint x="400" y="480" as="targetPoint" />
          </mxGeometry>
        </mxCell>
        <mxCell id="KLTQbaZBxGaoS2x_sraV-4" value="" style="endArrow=none;html=1;rounded=0;strokeWidth=4;dashed=1;" edge="1" parent="1">
          <mxGeometry width="50" height="50" relative="1" as="geometry">
            <mxPoint x="80" y="280" as="sourcePoint" />
            <mxPoint x="400" y="280" as="targetPoint" />
          </mxGeometry>
        </mxCell>
        <mxCell id="KLTQbaZBxGaoS2x_sraV-5" value="" style="endArrow=none;html=1;rounded=0;strokeWidth=4;jumpStyle=none;shadow=0;flowAnimation=0;ignoreEdge=0;orthogonalLoop=0;orthogonal=0;enumerate=0;comic=0;fillColor=#f8cecc;strokeColor=#b85450;" edge="1" parent="1">
          <mxGeometry width="50" height="50" relative="1" as="geometry">
            <mxPoint x="80" y="480" as="sourcePoint" />
            <mxPoint x="140" y="240" as="targetPoint" />
          </mxGeometry>
        </mxCell>
        <mxCell id="KLTQbaZBxGaoS2x_sraV-6" value="" style="endArrow=none;html=1;rounded=0;strokeWidth=4;jumpStyle=none;shadow=0;flowAnimation=0;ignoreEdge=0;orthogonalLoop=0;orthogonal=0;enumerate=0;comic=0;fillColor=#f8cecc;strokeColor=#b85450;" edge="1" parent="1">
          <mxGeometry width="50" height="50" relative="1" as="geometry">
            <mxPoint x="160" y="360" as="sourcePoint" />
            <mxPoint x="140" y="240" as="targetPoint" />
          </mxGeometry>
        </mxCell>
        <mxCell id="KLTQbaZBxGaoS2x_sraV-7" value="" style="endArrow=none;html=1;rounded=0;strokeWidth=4;jumpStyle=none;shadow=0;flowAnimation=0;ignoreEdge=0;orthogonalLoop=0;orthogonal=0;enumerate=0;comic=0;fillColor=#f8cecc;strokeColor=#b85450;" edge="1" parent="1">
          <mxGeometry width="50" height="50" relative="1" as="geometry">
            <mxPoint x="160" y="360" as="sourcePoint" />
            <mxPoint x="200" y="260" as="targetPoint" />
          </mxGeometry>
        </mxCell>
        <mxCell id="KLTQbaZBxGaoS2x_sraV-8" value="" style="endArrow=none;html=1;rounded=0;strokeWidth=4;jumpStyle=none;shadow=0;flowAnimation=0;ignoreEdge=0;orthogonalLoop=0;orthogonal=0;enumerate=0;comic=0;fillColor=#f8cecc;strokeColor=#b85450;" edge="1" parent="1">
          <mxGeometry width="50" height="50" relative="1" as="geometry">
            <mxPoint x="230" y="400" as="sourcePoint" />
            <mxPoint x="200" y="260" as="targetPoint" />
          </mxGeometry>
        </mxCell>
        <mxCell id="KLTQbaZBxGaoS2x_sraV-9" value="" style="endArrow=none;html=1;rounded=0;strokeWidth=4;jumpStyle=none;shadow=0;flowAnimation=0;ignoreEdge=0;orthogonalLoop=0;orthogonal=0;enumerate=0;comic=0;fillColor=#f8cecc;strokeColor=#b85450;" edge="1" parent="1">
          <mxGeometry width="50" height="50" relative="1" as="geometry">
            <mxPoint x="230" y="400" as="sourcePoint" />
            <mxPoint x="250" y="160" as="targetPoint" />
          </mxGeometry>
        </mxCell>
        <mxCell id="KLTQbaZBxGaoS2x_sraV-10" value="" style="endArrow=none;html=1;rounded=0;strokeWidth=4;jumpStyle=none;shadow=0;flowAnimation=0;ignoreEdge=0;orthogonalLoop=0;orthogonal=0;enumerate=0;comic=0;fillColor=#f8cecc;strokeColor=#b85450;" edge="1" parent="1">
          <mxGeometry width="50" height="50" relative="1" as="geometry">
            <mxPoint x="270" y="420" as="sourcePoint" />
            <mxPoint x="250" y="160" as="targetPoint" />
          </mxGeometry>
        </mxCell>
        <mxCell id="KLTQbaZBxGaoS2x_sraV-12" value="" style="endArrow=none;html=1;rounded=0;strokeWidth=4;jumpStyle=none;shadow=0;flowAnimation=0;ignoreEdge=0;orthogonalLoop=0;orthogonal=0;enumerate=0;comic=0;fillColor=#f8cecc;strokeColor=#b85450;" edge="1" parent="1">
          <mxGeometry width="50" height="50" relative="1" as="geometry">
            <mxPoint x="270" y="420" as="sourcePoint" />
            <mxPoint x="290" y="350" as="targetPoint" />
          </mxGeometry>
        </mxCell>
        <mxCell id="KLTQbaZBxGaoS2x_sraV-13" value="" style="endArrow=none;html=1;rounded=0;strokeWidth=4;fillColor=#f8cecc;strokeColor=#b85450;" edge="1" parent="1">
          <mxGeometry width="50" height="50" relative="1" as="geometry">
            <mxPoint x="300" y="390" as="sourcePoint" />
            <mxPoint x="290" y="350" as="targetPoint" />
          </mxGeometry>
        </mxCell>
        <mxCell id="KLTQbaZBxGaoS2x_sraV-14" value="" style="endArrow=none;html=1;rounded=0;strokeWidth=4;jumpStyle=none;shadow=0;flowAnimation=0;ignoreEdge=0;orthogonalLoop=0;orthogonal=0;enumerate=0;comic=0;fillColor=#f8cecc;strokeColor=#b85450;" edge="1" parent="1">
          <mxGeometry width="50" height="50" relative="1" as="geometry">
            <mxPoint x="300" y="390" as="sourcePoint" />
            <mxPoint x="320" y="180" as="targetPoint" />
          </mxGeometry>
        </mxCell>
        <mxCell id="KLTQbaZBxGaoS2x_sraV-15" value="" style="endArrow=none;html=1;rounded=0;strokeWidth=4;jumpStyle=none;shadow=0;flowAnimation=0;ignoreEdge=0;orthogonalLoop=0;orthogonal=0;enumerate=0;comic=0;fillColor=#f8cecc;strokeColor=#b85450;" edge="1" parent="1">
          <mxGeometry width="50" height="50" relative="1" as="geometry">
            <mxPoint x="400" y="480" as="sourcePoint" />
            <mxPoint x="320" y="180" as="targetPoint" />
          </mxGeometry>
        </mxCell>
        <mxCell id="KLTQbaZBxGaoS2x_sraV-16" value="" style="endArrow=none;html=1;rounded=0;strokeWidth=4;" edge="1" parent="1">
          <mxGeometry width="50" height="50" relative="1" as="geometry">
            <mxPoint x="500" y="480" as="sourcePoint" />
            <mxPoint x="500" y="160" as="targetPoint" />
          </mxGeometry>
        </mxCell>
        <mxCell id="KLTQbaZBxGaoS2x_sraV-17" value="" style="endArrow=none;html=1;rounded=0;strokeWidth=4;" edge="1" parent="1">
          <mxGeometry width="50" height="50" relative="1" as="geometry">
            <mxPoint x="500" y="480" as="sourcePoint" />
            <mxPoint x="820" y="480" as="targetPoint" />
          </mxGeometry>
        </mxCell>
        <mxCell id="KLTQbaZBxGaoS2x_sraV-18" value="" style="endArrow=none;html=1;rounded=0;strokeWidth=4;dashed=1;" edge="1" parent="1">
          <mxGeometry width="50" height="50" relative="1" as="geometry">
            <mxPoint x="500" y="280" as="sourcePoint" />
            <mxPoint x="820" y="280" as="targetPoint" />
          </mxGeometry>
        </mxCell>
        <mxCell id="KLTQbaZBxGaoS2x_sraV-19" value="" style="endArrow=none;html=1;rounded=0;strokeWidth=4;fillColor=#f8cecc;strokeColor=#b85450;" edge="1" parent="1">
          <mxGeometry width="50" height="50" relative="1" as="geometry">
            <mxPoint x="500" y="480" as="sourcePoint" />
            <mxPoint x="550" y="280" as="targetPoint" />
          </mxGeometry>
        </mxCell>
        <mxCell id="KLTQbaZBxGaoS2x_sraV-20" value="" style="endArrow=none;html=1;rounded=0;strokeWidth=4;fillColor=#f8cecc;strokeColor=#b85450;" edge="1" parent="1">
          <mxGeometry width="50" height="50" relative="1" as="geometry">
            <mxPoint x="580" y="360" as="sourcePoint" />
            <mxPoint x="570" y="280" as="targetPoint" />
          </mxGeometry>
        </mxCell>
        <mxCell id="KLTQbaZBxGaoS2x_sraV-21" value="" style="endArrow=none;html=1;rounded=0;strokeWidth=4;fillColor=#f8cecc;strokeColor=#b85450;" edge="1" parent="1">
          <mxGeometry width="50" height="50" relative="1" as="geometry">
            <mxPoint x="580" y="360" as="sourcePoint" />
            <mxPoint x="610" y="280" as="targetPoint" />
          </mxGeometry>
        </mxCell>
        <mxCell id="KLTQbaZBxGaoS2x_sraV-22" value="" style="endArrow=none;html=1;rounded=0;strokeWidth=4;fillColor=#f8cecc;strokeColor=#b85450;" edge="1" parent="1">
          <mxGeometry width="50" height="50" relative="1" as="geometry">
            <mxPoint x="650" y="400" as="sourcePoint" />
            <mxPoint x="620" y="280" as="targetPoint" />
          </mxGeometry>
        </mxCell>
        <mxCell id="KLTQbaZBxGaoS2x_sraV-23" value="" style="endArrow=none;html=1;rounded=0;strokeWidth=4;fillColor=#f8cecc;strokeColor=#b85450;" edge="1" parent="1">
          <mxGeometry width="50" height="50" relative="1" as="geometry">
            <mxPoint x="650" y="400" as="sourcePoint" />
            <mxPoint x="660" y="280" as="targetPoint" />
          </mxGeometry>
        </mxCell>
        <mxCell id="KLTQbaZBxGaoS2x_sraV-24" value="" style="endArrow=none;html=1;rounded=0;strokeWidth=4;fillColor=#f8cecc;strokeColor=#b85450;" edge="1" parent="1">
          <mxGeometry width="50" height="50" relative="1" as="geometry">
            <mxPoint x="690" y="420" as="sourcePoint" />
            <mxPoint x="680" y="280" as="targetPoint" />
          </mxGeometry>
        </mxCell>
        <mxCell id="KLTQbaZBxGaoS2x_sraV-25" value="" style="endArrow=none;html=1;rounded=0;strokeWidth=4;fillColor=#f8cecc;strokeColor=#b85450;" edge="1" parent="1">
          <mxGeometry width="50" height="50" relative="1" as="geometry">
            <mxPoint x="690" y="420" as="sourcePoint" />
            <mxPoint x="710" y="350" as="targetPoint" />
          </mxGeometry>
        </mxCell>
        <mxCell id="KLTQbaZBxGaoS2x_sraV-26" value="" style="endArrow=none;html=1;rounded=0;strokeWidth=4;fillColor=#f8cecc;strokeColor=#b85450;" edge="1" parent="1">
          <mxGeometry width="50" height="50" relative="1" as="geometry">
            <mxPoint x="720" y="390" as="sourcePoint" />
            <mxPoint x="710" y="350" as="targetPoint" />
          </mxGeometry>
        </mxCell>
        <mxCell id="KLTQbaZBxGaoS2x_sraV-27" value="" style="endArrow=none;html=1;rounded=0;strokeWidth=4;fillColor=#f8cecc;strokeColor=#b85450;" edge="1" parent="1">
          <mxGeometry width="50" height="50" relative="1" as="geometry">
            <mxPoint x="720" y="390" as="sourcePoint" />
            <mxPoint x="730" y="280" as="targetPoint" />
          </mxGeometry>
        </mxCell>
        <mxCell id="KLTQbaZBxGaoS2x_sraV-28" value="" style="endArrow=none;html=1;rounded=0;strokeWidth=4;fillColor=#f8cecc;strokeColor=#b85450;" edge="1" parent="1">
          <mxGeometry width="50" height="50" relative="1" as="geometry">
            <mxPoint x="820" y="480" as="sourcePoint" />
            <mxPoint x="760" y="280" as="targetPoint" />
          </mxGeometry>
        </mxCell>
        <mxCell id="KLTQbaZBxGaoS2x_sraV-31" value="" style="endArrow=none;html=1;rounded=0;fillColor=#ffe6cc;strokeColor=#d79b00;strokeWidth=4;" edge="1" parent="1">
          <mxGeometry width="50" height="50" relative="1" as="geometry">
            <mxPoint x="130" y="280" as="sourcePoint" />
            <mxPoint x="140" y="240" as="targetPoint" />
          </mxGeometry>
        </mxCell>
        <mxCell id="KLTQbaZBxGaoS2x_sraV-47" value="" style="endArrow=none;html=1;rounded=0;fillColor=#ffe6cc;strokeColor=#d79b00;strokeWidth=4;" edge="1" parent="1">
          <mxGeometry width="50" height="50" relative="1" as="geometry">
            <mxPoint x="147" y="280" as="sourcePoint" />
            <mxPoint x="140" y="240" as="targetPoint" />
          </mxGeometry>
        </mxCell>
        <mxCell id="KLTQbaZBxGaoS2x_sraV-48" value="" style="endArrow=none;html=1;rounded=0;fillColor=#ffe6cc;strokeColor=#d79b00;strokeWidth=4;" edge="1" parent="1">
          <mxGeometry width="50" height="50" relative="1" as="geometry">
            <mxPoint x="191" y="280" as="sourcePoint" />
            <mxPoint x="201" y="260" as="targetPoint" />
          </mxGeometry>
        </mxCell>
        <mxCell id="KLTQbaZBxGaoS2x_sraV-49" value="" style="endArrow=none;html=1;rounded=0;fillColor=#ffe6cc;strokeColor=#d79b00;strokeWidth=4;" edge="1" parent="1">
          <mxGeometry width="50" height="50" relative="1" as="geometry">
            <mxPoint x="205" y="280" as="sourcePoint" />
            <mxPoint x="199" y="260" as="targetPoint" />
          </mxGeometry>
        </mxCell>
        <mxCell id="KLTQbaZBxGaoS2x_sraV-50" value="" style="endArrow=none;html=1;rounded=0;fillColor=#ffe6cc;strokeColor=#d79b00;strokeWidth=4;" edge="1" parent="1">
          <mxGeometry width="50" height="50" relative="1" as="geometry">
            <mxPoint x="240" y="280" as="sourcePoint" />
            <mxPoint x="250" y="160" as="targetPoint" />
          </mxGeometry>
        </mxCell>
        <mxCell id="KLTQbaZBxGaoS2x_sraV-51" value="" style="endArrow=none;html=1;rounded=0;fillColor=#ffe6cc;strokeColor=#d79b00;strokeWidth=4;" edge="1" parent="1">
          <mxGeometry width="50" height="50" relative="1" as="geometry">
            <mxPoint x="260" y="280" as="sourcePoint" />
            <mxPoint x="250" y="160" as="targetPoint" />
          </mxGeometry>
        </mxCell>
        <mxCell id="KLTQbaZBxGaoS2x_sraV-52" value="" style="endArrow=none;html=1;rounded=0;fillColor=#ffe6cc;strokeColor=#d79b00;strokeWidth=4;" edge="1" parent="1">
          <mxGeometry width="50" height="50" relative="1" as="geometry">
            <mxPoint x="260" y="280" as="sourcePoint" />
            <mxPoint x="250" y="160" as="targetPoint" />
          </mxGeometry>
        </mxCell>
        <mxCell id="KLTQbaZBxGaoS2x_sraV-53" value="" style="endArrow=none;html=1;rounded=0;fillColor=#ffe6cc;strokeColor=#d79b00;strokeWidth=4;" edge="1" parent="1">
          <mxGeometry width="50" height="50" relative="1" as="geometry">
            <mxPoint x="310" y="280" as="sourcePoint" />
            <mxPoint x="320" y="180" as="targetPoint" />
          </mxGeometry>
        </mxCell>
        <mxCell id="KLTQbaZBxGaoS2x_sraV-54" value="" style="endArrow=none;html=1;rounded=0;fillColor=#ffe6cc;strokeColor=#d79b00;strokeWidth=4;" edge="1" parent="1">
          <mxGeometry width="50" height="50" relative="1" as="geometry">
            <mxPoint x="347" y="281" as="sourcePoint" />
            <mxPoint x="320" y="180" as="targetPoint" />
          </mxGeometry>
        </mxCell>
        <mxCell id="KLTQbaZBxGaoS2x_sraV-55" value="TRAFFIC STREAM RATE" style="text;html=1;strokeColor=none;fillColor=none;align=center;verticalAlign=middle;whiteSpace=wrap;rounded=0;fontSize=16;fontStyle=1;rotation=-90;" vertex="1" parent="1">
          <mxGeometry x="-50" y="290" width="200" height="30" as="geometry" />
        </mxCell>
        <mxCell id="KLTQbaZBxGaoS2x_sraV-56" value="TIME" style="text;html=1;strokeColor=none;fillColor=none;align=center;verticalAlign=middle;whiteSpace=wrap;rounded=0;fontSize=16;fontStyle=1" vertex="1" parent="1">
          <mxGeometry x="650" y="500" width="60" height="30" as="geometry" />
        </mxCell>
        <mxCell id="KLTQbaZBxGaoS2x_sraV-57" value="TIME" style="text;html=1;strokeColor=none;fillColor=none;align=center;verticalAlign=middle;whiteSpace=wrap;rounded=0;fontSize=16;fontStyle=1" vertex="1" parent="1">
          <mxGeometry x="200" y="510" width="60" height="30" as="geometry" />
        </mxCell>
        <mxCell id="KLTQbaZBxGaoS2x_sraV-58" value="TRAFFIC STREAM RATE" style="text;html=1;strokeColor=none;fillColor=none;align=center;verticalAlign=middle;whiteSpace=wrap;rounded=0;fontSize=16;fontStyle=1;rotation=-90;" vertex="1" parent="1">
          <mxGeometry x="370" y="290" width="200" height="30" as="geometry" />
        </mxCell>
        <mxCell id="KLTQbaZBxGaoS2x_sraV-59" value="EXCEED (MARKDOWN)" style="text;html=1;strokeColor=none;fillColor=none;align=center;verticalAlign=middle;whiteSpace=wrap;rounded=0;fontSize=16;fontStyle=1;fontColor=#B88251;" vertex="1" parent="1">
          <mxGeometry x="350" y="60" width="200" height="30" as="geometry" />
        </mxCell>
        <mxCell id="KLTQbaZBxGaoS2x_sraV-61" value="" style="endArrow=classic;html=1;rounded=0;strokeWidth=4;fillColor=#ffe6cc;strokeColor=#d79b00;exitX=0.25;exitY=1;exitDx=0;exitDy=0;" edge="1" parent="1" source="KLTQbaZBxGaoS2x_sraV-59">
          <mxGeometry width="50" height="50" relative="1" as="geometry">
            <mxPoint x="380" y="100" as="sourcePoint" />
            <mxPoint x="290" y="180" as="targetPoint" />
          </mxGeometry>
        </mxCell>
        <mxCell id="KLTQbaZBxGaoS2x_sraV-62" value="CONFORM (TRANSMIT)" style="text;html=1;strokeColor=none;fillColor=none;align=center;verticalAlign=middle;whiteSpace=wrap;rounded=0;fontSize=16;fontStyle=1;fontColor=#FF0000;" vertex="1" parent="1">
          <mxGeometry x="420" y="555" width="60" height="30" as="geometry" />
        </mxCell>
        <mxCell id="KLTQbaZBxGaoS2x_sraV-64" value="" style="endArrow=classic;html=1;rounded=0;fontColor=#c83737;strokeWidth=4;strokeColor=#FF0000;" edge="1" parent="1">
          <mxGeometry width="50" height="50" relative="1" as="geometry">
            <mxPoint x="400" y="550" as="sourcePoint" />
            <mxPoint x="290" y="430" as="targetPoint" />
          </mxGeometry>
        </mxCell>
        <mxCell id="KLTQbaZBxGaoS2x_sraV-66" value="" style="endArrow=classic;html=1;rounded=0;fontColor=#c83737;strokeWidth=4;strokeColor=#FF0000;" edge="1" parent="1">
          <mxGeometry width="50" height="50" relative="1" as="geometry">
            <mxPoint x="460" y="550" as="sourcePoint" />
            <mxPoint x="630" y="400" as="targetPoint" />
          </mxGeometry>
        </mxCell>
      </root>
    </mxGraphModel>
  </diagram>
</mxfile>
